<svg width="39" height="39" viewBox="0 0 39 39" fill="none" xmlns="http://www.w3.org/2000/svg">
<path d="M26 29.25C26.862 29.25 27.6886 29.5924 28.2981 30.2019C28.9076 30.8114 29.25 31.638 29.25 32.5C29.25 33.362 28.9076 34.1886 28.2981 34.7981C27.6886 35.4076 26.862 35.75 26 35.75C25.138 35.75 24.3114 35.4076 23.7019 34.7981C23.0924 34.1886 22.75 33.362 22.75 32.5C22.75 31.638 23.0924 30.8114 23.7019 30.2019C24.3114 29.5924 25.138 29.25 26 29.25ZM26 30.875C25.569 30.875 25.1557 31.0462 24.851 31.351C24.5462 31.6557 24.375 32.069 24.375 32.5C24.375 32.931 24.5462 33.3443 24.851 33.649C25.1557 33.9538 25.569 34.125 26 34.125C26.431 34.125 26.8443 33.9538 27.149 33.649C27.4538 33.3443 27.625 32.931 27.625 32.5C27.625 32.069 27.4538 31.6557 27.149 31.351C26.8443 31.0462 26.431 30.875 26 30.875ZM11.375 29.25C12.237 29.25 13.0636 29.5924 13.6731 30.2019C14.2826 30.8114 14.625 31.638 14.625 32.5C14.625 33.362 14.2826 34.1886 13.6731 34.7981C13.0636 35.4076 12.237 35.75 11.375 35.75C10.513 35.75 9.6864 35.4076 9.0769 34.7981C8.46741 34.1886 8.125 33.362 8.125 32.5C8.125 31.638 8.46741 30.8114 9.0769 30.2019C9.6864 29.5924 10.513 29.25 11.375 29.25ZM11.375 30.875C10.944 30.875 10.5307 31.0462 10.226 31.351C9.92121 31.6557 9.75 32.069 9.75 32.5C9.75 32.931 9.92121 33.3443 10.226 33.649C10.5307 33.9538 10.944 34.125 11.375 34.125C11.806 34.125 12.2193 33.9538 12.524 33.649C12.8288 33.3443 13 32.931 13 32.5C13 32.069 12.8288 31.6557 12.524 31.351C12.2193 31.0462 11.806 30.875 11.375 30.875ZM29.25 9.75H6.93875L11.0825 19.5H24.375C24.9112 19.5 25.3825 19.24 25.675 18.85L30.55 12.35C30.7612 12.0738 30.875 11.7325 30.875 11.375C30.875 10.944 30.7038 10.5307 30.399 10.226C30.0943 9.92121 29.681 9.75 29.25 9.75ZM24.375 21.125H11.1637L9.9125 23.66L9.75 24.375C9.75 24.806 9.92121 25.2193 10.226 25.524C10.5307 25.8288 10.944 26 11.375 26H29.25V27.625H11.375C10.513 27.625 9.6864 27.2826 9.0769 26.6731C8.46741 26.0636 8.125 25.237 8.125 24.375C8.12452 23.8236 8.26432 23.2812 8.53125 22.7987L9.70125 20.41L3.8025 6.5H1.625V4.875H4.875L6.25625 8.125H29.25C30.112 8.125 30.9386 8.46741 31.5481 9.0769C32.1576 9.6864 32.5 10.513 32.5 11.375C32.5 12.1875 32.2237 12.87 31.7687 13.4225L27.04 19.7437C26.455 20.5725 25.48 21.125 24.375 21.125Z" fill="#FAFAFA"/>
</svg>
