<svg width="27" height="27" viewBox="0 0 27 27" fill="none" xmlns="http://www.w3.org/2000/svg">
<path d="M14.2783 0.390382L26.2783 12.3904C27.1183 13.2304 26.5237 14.6664 25.3357 14.6664H24.0023V22.6664C24.0023 23.7272 23.5809 24.7447 22.8308 25.4948C22.0806 26.245 21.0632 26.6664 20.0023 26.6664H18.669V17.333C18.6691 16.3128 18.2792 15.331 17.5793 14.5887C16.8793 13.8464 15.9222 13.3996 14.9037 13.3397L14.669 13.333H12.0023C10.9415 13.333 9.92405 13.7545 9.1739 14.5046C8.42376 15.2548 8.00233 16.2722 8.00233 17.333V26.6664H6.669C5.60813 26.6664 4.59072 26.245 3.84057 25.4948C3.09042 24.7447 2.669 23.7272 2.669 22.6664V14.6664H1.33566C0.148997 14.6664 -0.447003 13.2304 0.392997 12.3904L12.393 0.390382C12.643 0.14042 12.9821 0 13.3357 0C13.6892 0 14.0283 0.14042 14.2783 0.390382ZM14.669 15.9997C15.0226 15.9997 15.3618 16.1402 15.6118 16.3902C15.8619 16.6403 16.0023 16.9794 16.0023 17.333V26.6664H10.669V17.333C10.669 17.0065 10.7889 16.6913 11.006 16.4472C11.223 16.2032 11.522 16.0473 11.8463 16.009L12.0023 15.9997H14.669Z" fill="white"/>
</svg>
