<svg width="39" height="39" viewBox="0 0 39 39" fill="none" xmlns="http://www.w3.org/2000/svg">
<path d="M19.5 13C21.2239 13 22.8772 13.6848 24.0962 14.9038C25.3152 16.1228 26 17.7761 26 19.5C26 21.2239 25.3152 22.8772 24.0962 24.0962C22.8772 25.3152 21.2239 26 19.5 26C17.7761 26 16.1228 25.3152 14.9038 24.0962C13.6848 22.8772 13 21.2239 13 19.5C13 17.7761 13.6848 16.1228 14.9038 14.9038C16.1228 13.6848 17.7761 13 19.5 13ZM19.5 16.25C18.6381 16.25 17.8114 16.5924 17.2019 17.2019C16.5924 17.8114 16.25 18.638 16.25 19.5C16.25 20.362 16.5924 21.1886 17.2019 21.7981C17.8114 22.4076 18.6381 22.75 19.5 22.75C20.362 22.75 21.1886 22.4076 21.7981 21.7981C22.4076 21.1886 22.75 20.362 22.75 19.5C22.75 18.638 22.4076 17.8114 21.7981 17.2019C21.1886 16.5924 20.362 16.25 19.5 16.25ZM16.25 35.75C15.8438 35.75 15.5025 35.4575 15.4375 35.0675L14.8363 30.7612C13.8125 30.355 12.935 29.8025 12.09 29.1525L8.04376 30.7938C7.68626 30.9238 7.24751 30.7937 7.05251 30.4362L3.80251 24.8138C3.70305 24.6463 3.66799 24.4484 3.70388 24.257C3.73977 24.0656 3.84415 23.8938 3.99751 23.7738L7.42626 21.0763L7.31251 19.5L7.42626 17.875L3.99751 15.2262C3.84415 15.1062 3.73977 14.9344 3.70388 14.743C3.66799 14.5516 3.70305 14.3537 3.80251 14.1862L7.05251 8.56375C7.24751 8.20625 7.68626 8.06 8.04376 8.20625L12.09 9.83125C12.935 9.1975 13.8125 8.645 14.8363 8.23875L15.4375 3.9325C15.5025 3.5425 15.8438 3.25 16.25 3.25H22.75C23.1563 3.25 23.4975 3.5425 23.5625 3.9325L24.1638 8.23875C25.1875 8.645 26.065 9.1975 26.91 9.83125L30.9563 8.20625C31.3138 8.06 31.7525 8.20625 31.9475 8.56375L35.1975 14.1862C35.4088 14.5437 35.3113 14.9825 35.0025 15.2262L31.5738 17.875L31.6875 19.5L31.5738 21.125L35.0025 23.7738C35.3113 24.0175 35.4088 24.4563 35.1975 24.8138L31.9475 30.4362C31.7525 30.7937 31.3138 30.94 30.9563 30.7938L26.91 29.1688C26.065 29.8025 25.1875 30.355 24.1638 30.7612L23.5625 35.0675C23.4975 35.4575 23.1563 35.75 22.75 35.75H16.25ZM18.2813 6.5L17.68 10.7413C15.73 11.1475 14.0075 12.1875 12.7563 13.6338L8.84001 11.9437L7.62126 14.0562L11.05 16.575C10.4 18.4708 10.4 20.5292 11.05 22.425L7.60501 24.96L8.82376 27.0725L12.7725 25.3825C14.0238 26.8125 15.73 27.8525 17.6638 28.2425L18.265 32.5H20.735L21.3363 28.2587C23.27 27.8525 24.9763 26.8125 26.2275 25.3825L30.1763 27.0725L31.395 24.96L27.95 22.4412C28.6 20.54 28.6 18.4762 27.95 16.575L31.3788 14.0562L30.16 11.9437L26.2438 13.6338C24.9669 12.1555 23.2348 11.1437 21.32 10.7575L20.7188 6.5H18.2813Z" fill="white"/>
</svg>
