<svg width="233" height="341" viewBox="0 0 233 341" fill="none" xmlns="http://www.w3.org/2000/svg">
<path d="M144.393 53.635L162.88 108.282L209.799 87.7248L173.638 160.858L65.4548 131.87L70.7055 50.4548L101.06 91.7172L144.393 53.635Z" stroke="#F23333" stroke-width="12" stroke-linecap="round" stroke-linejoin="round"/>
<path d="M107.625 298C107.625 309.047 101.172 318 90.125 318H48.875C37.8281 318 31.375 309.047 31.375 298M112 273C117.522 273 122 278.597 122 285.5C122 292.403 117.522 298 112 298H27C21.4781 298 17 292.403 17 285.5C17 278.597 21.4781 273 27 273" stroke="#F23333" stroke-width="10" stroke-miterlimit="10" stroke-linecap="round"/>
<path d="M27 254.25V254.181C27 236.994 41.0625 228 58.25 228H80.75C97.9375 228 112 237.062 112 254.25V254.181M82.3125 203L84.6375 222.991M114.5 273H63.0344C62.3722 273 61.7372 273.263 61.2688 273.731L52.8844 282.116C52.7683 282.232 52.6304 282.324 52.4787 282.387C52.3269 282.45 52.1643 282.482 52 282.482C51.8357 282.482 51.6731 282.45 51.5213 282.387C51.3696 282.324 51.2317 282.232 51.1156 282.116L42.7312 273.731C42.2628 273.263 41.6278 273 40.9656 273H24.5C22.5109 273 20.6032 272.21 19.1967 270.803C17.7902 269.397 17 267.489 17 265.5C17 263.511 17.7902 261.603 19.1967 260.197C20.6032 258.79 22.5109 258 24.5 258H114.5C116.489 258 118.397 258.79 119.803 260.197C121.21 261.603 122 263.511 122 265.5C122 267.489 121.21 269.397 119.803 270.803C118.397 272.21 116.489 273 114.5 273Z" stroke="#F23333" stroke-width="10" stroke-miterlimit="10" stroke-linecap="round"/>
<path d="M87 318H130.534C133.057 318 135.487 317.046 137.336 315.33C139.185 313.614 140.318 311.263 140.506 308.747L151.688 203" stroke="#F23333" stroke-width="10" stroke-miterlimit="10" stroke-linecap="round"/>
<path d="M122 203L127 183L141.688 178" stroke="#F23333" stroke-width="10" stroke-linecap="round" stroke-linejoin="round"/>
<path d="M77 203H157" stroke="#F23333" stroke-width="10" stroke-miterlimit="10" stroke-linecap="round"/>
</svg>
