<svg width="48" height="47" viewBox="0 0 48 47" fill="none" xmlns="http://www.w3.org/2000/svg">
<path d="M12.36 42.975C11.293 42.975 10.3799 42.5954 9.62073 41.8362C8.86154 41.077 8.4813 40.1633 8.48001 39.095V19.695C8.48001 18.628 8.86025 17.7149 9.62073 16.9557C10.3812 16.1965 11.2943 15.8163 12.36 15.815H14.3V11.935C14.3 9.25132 15.2461 6.96406 17.1382 5.07321C19.0304 3.18235 21.3176 2.23628 24 2.23499C26.6824 2.23369 28.9703 3.17977 30.8637 5.07321C32.7572 6.96665 33.7026 9.25391 33.7 11.935V15.815H35.64C36.707 15.815 37.6208 16.1952 38.3812 16.9557C39.1417 17.7162 39.5213 18.6293 39.52 19.695V39.095C39.52 40.162 39.1404 41.0757 38.3812 41.8362C37.622 42.5967 36.7083 42.9763 35.64 42.975H12.36ZM12.36 39.095H35.64V19.695H12.36V39.095ZM24 33.275C25.067 33.275 25.9808 32.8954 26.7412 32.1362C27.5017 31.377 27.8813 30.4633 27.88 29.395C27.8787 28.3267 27.4991 27.4136 26.7412 26.6557C25.9833 25.8978 25.0696 25.5176 24 25.515C22.9304 25.5124 22.0173 25.8926 21.2607 26.6557C20.5041 27.4188 20.1239 28.3319 20.12 29.395C20.1161 30.4581 20.4964 31.3718 21.2607 32.1362C22.0251 32.9006 22.9382 33.2802 24 33.275ZM18.18 15.815H29.82V11.935C29.82 10.3183 29.2542 8.94415 28.1225 7.81249C26.9908 6.68082 25.6167 6.11499 24 6.11499C22.3833 6.11499 21.0092 6.68082 19.8775 7.81249C18.7458 8.94415 18.18 10.3183 18.18 11.935V15.815Z" fill="#F23333"/>
</svg>
