<svg width="42" height="42" viewBox="0 0 42 42" fill="none" xmlns="http://www.w3.org/2000/svg">
<path d="M10.5 36.75V33.25C10.5 31.3935 11.2375 29.613 12.5503 28.3003C13.863 26.9875 15.6435 26.25 17.5 26.25H24.5C26.3565 26.25 28.137 26.9875 29.4497 28.3003C30.7625 29.613 31.5 31.3935 31.5 33.25V36.75M14 12.25C14 14.1065 14.7375 15.887 16.0503 17.1997C17.363 18.5125 19.1435 19.25 21 19.25C22.8565 19.25 24.637 18.5125 25.9497 17.1997C27.2625 15.887 28 14.1065 28 12.25C28 10.3935 27.2625 8.61301 25.9497 7.30025C24.637 5.9875 22.8565 5.25 21 5.25C19.1435 5.25 17.363 5.9875 16.0503 7.30025C14.7375 8.61301 14 10.3935 14 12.25Z" stroke="#F23333" stroke-width="3.5" stroke-linecap="round" stroke-linejoin="round"/>
</svg>
